# File created by Blade
# Date/Time:  Tue Sep 30 19:36:36 2014
#---------------------------------------------------------
:version 1.10
:name HOM
:units
  mass 1.0
  length 1.000000
  angle deg
:documentation
     Acclaim Skeleton File
:root
   axis xyz
   order TX TY TZ RX RY RZ
   position 0.000000 0.000000 0.000000
   orientation 0 0 0
:bonedata
   begin
      id 1
      name Spine_dum
      direction 0.000000 1.000000 0.000000
      length 3.241213
      axis 0.0 0.0 0.0 xyz
   end
   begin
      id 2
      name LeftUpLeg_dum
      direction 1.000000 0.000000 0.000000
      length 3.434019
      axis 0.0 0.0 0.0 xyz
   end
   begin
      id 3
      name RightUpLeg_dum
      direction -1.000000 0.000000 0.000000
      length 3.434019
      axis 0.0 0.0 0.0 xyz
   end
   begin
      id 4
      name Spine
      direction 0.000000 1.000000 0.000000
      length 0.000000
      axis 0.0 0.0 0.0 xyz
      dof rx ry rz
   end
   begin
      id 5
      name Spine_dum1
      direction 0.000000 1.000000 0.000000
      length 18.382958
      axis 0.0 0.0 0.0 xyz
   end
   begin
      id 6
      name Spine_dum2
      direction 0.000000 1.000000 0.000000
      length 12.828261
      axis 0.0 0.0 0.0 xyz
   end
   begin
      id 7
      name Spine_dum3
      direction 0.000000 1.000000 0.000000
      length 12.828261
      axis 0.0 0.0 0.0 xyz
   end
   begin
      id 8
      name Head
      direction 0.000000 1.000000 0.000000
      length 4.527550
      axis 0.0 0.0 0.0 xyz
      dof rx ry rz
   end
   begin
      id 9
      name LeftShoulder
      direction 1.000000 0.000000 0.000000
      length 7.748055
      axis 0.0 0.0 -90.0 xyz
      dof rx ry rz
   end
   begin
      id 10
      name LeftArm
      direction 1.000000 0.000000 0.000000
      length 10.635614
      axis 0.0 0.0 -90.0 xyz
      dof rx ry rz
   end
   begin
      id 11
      name LeftForeArm
      direction 1.000000 0.000000 0.000000
      length 8.346755
      axis 0.0 0.0 -90.0 xyz
      dof ry rz rx
   end
   begin
      id 12
      name LeftHand
      direction 0.000000 0.000000 0.000000
      length 0.000000
      axis 0.0 0.0 -90.0 xyz
      dof rx ry rz
   end
   begin
      id 13
      name LeftHand_dum1
      direction 0.000000 0.000000 0.000000
      length 0.000000
      axis 0.0 0.0 -90.0 xyz
   end
   begin
      id 14
      name LeftHand_dum2
      direction 1.000000 0.000000 0.000000
      length 3.937000
      axis 0.0 0.0 -90.0 xyz
   end
   begin
      id 15
      name LeftHandThumb1
      direction 0.000000 0.000000 1.000000
      length 3.937000
      axis 0.0 0.0 -90.0 xyz
      dof rx rz ry
   end
   begin
      id 16
      name RightShoulder
      direction -1.000000 0.000000 0.000000
      length 7.748055
      axis 0.0 0.0 90.0 xyz
      dof rx ry rz
   end
   begin
      id 17
      name RightArm
      direction -1.000000 0.000000 0.000000
      length 10.635614
      axis 0.0 0.0 90.0 xyz
      dof rx ry rz
   end
   begin
      id 18
      name RightForeArm
      direction -1.000000 0.000000 0.000000
      length 8.346755
      axis 0.0 0.0 90.0 xyz
      dof ry rz rx
   end
   begin
      id 19
      name RightHand
      direction 0.000000 0.000000 0.000000
      length 0.000000
      axis 0.0 0.0 90.0 xyz
      dof rx ry rz
   end
   begin
      id 20
      name RightHand_dum1
      direction 0.000000 0.000000 0.000000
      length 0.000000
      axis 0.0 0.0 90.0 xyz
   end
   begin
      id 21
      name RightHand_dum2
      direction -1.000000 0.000000 0.000000
      length 3.937000
      axis 0.0 0.0 90.0 xyz
   end
   begin
      id 22
      name RightHandThumb1
      direction 0.000000 0.000000 1.000000
      length 3.937000
      axis 0.0 0.0 90.0 xyz
      dof rx rz ry
   end
   begin
      id 23
      name LeftUpLeg
      direction 0.000000 -1.000000 0.000000
      length 15.713025
      axis 0.0 0.0 0.0 xyz
      dof rx ry rz
   end
   begin
      id 24
      name LeftLeg
      direction 0.000000 -1.000000 0.000000
      length 14.435119
      axis 0.0 0.0 0.0 xyz
      dof rx ry rz
   end
   begin
      id 25
      name LeftFoot
      direction 0.000000 -0.258819 0.965926
      length 4.938895
      axis 15.0 0.0 0.0 xyz
      dof rx ry rz
   end
   begin
      id 26
      name LeftToeBase
      direction 0.000000 0.000000 1.000000
      length 2.952750
      axis 0.0 0.0 0.0 xyz
      dof rx ry rz
   end
   begin
      id 27
      name RightUpLeg
      direction 0.000000 -1.000000 0.000000
      length 15.713025
      axis 0.0 0.0 0.0 xyz
      dof rx ry rz
   end
   begin
      id 28
      name RightLeg
      direction 0.000000 -1.000000 0.000000
      length 14.435119
      axis 0.0 0.0 0.0 xyz
      dof rx ry rz
   end
   begin
      id 29
      name RightFoot
      direction 0.000000 -0.258819 0.965926
      length 4.938895
      axis 15.0 0.0 0.0 xyz
      dof rx ry rz
   end
   begin
      id 30
      name RightToeBase
      direction 0.000000 0.000000 1.000000
      length 2.952750
      axis 0.0 0.0 0.0 xyz
      dof rx ry rz
   end
:hierarchy
   begin
      root Spine_dum LeftUpLeg_dum RightUpLeg_dum
      Spine_dum Spine
      LeftUpLeg_dum LeftUpLeg
      RightUpLeg_dum RightUpLeg
      Spine Spine_dum1 Spine_dum2 Spine_dum3
      Spine_dum1 Head
      Spine_dum2 LeftShoulder
      Spine_dum3 RightShoulder
      LeftShoulder LeftArm
      LeftArm LeftForeArm
      LeftForeArm LeftHand
      LeftHand LeftHand_dum1 LeftHand_dum2
      LeftHand_dum1 LeftHandThumb1
      RightShoulder RightArm
      RightArm RightForeArm
      RightForeArm RightHand
      RightHand RightHand_dum1 RightHand_dum2
      RightHand_dum1 RightHandThumb1
      LeftUpLeg LeftLeg
      LeftLeg LeftFoot
      LeftFoot LeftToeBase
      RightUpLeg RightLeg
      RightLeg RightFoot
      RightFoot RightToeBase
   end

# File created by Blade
# Date/Time:  Tue Sep 23 19:22:32 2014
# Frame Rate: 120.000 fps
#------------------------------------------------------
:FULLY-SPECIFIED
:DEGREES
634
root 1.294053 34.246275 -1.901877 113.152026 1.803451 -32.161259
Spine -60.627275 -16.159772 29.468754
Head -24.263658 27.420420 37.371790
LeftShoulder -16.958330 33.675130 42.046908
LeftArm 117.568190 -73.792495 -129.542171
LeftForeArm 6.004234 -0.000000 108.479810
LeftHand 37.950871 -0.000000 8.319723
LeftHandThumb1 -26.253704 0.000000 33.147579
RightShoulder -55.979123 -59.424864 19.169556
RightArm 27.090302 -13.043332 48.244022
RightForeArm 16.464236 0.000000 96.378662
RightHand 32.527334 -0.000000 -14.646749
RightHandThumb1 -24.326973 -0.000000 -32.862282
LeftUpLeg -110.064609 33.515876 3.669171
LeftLeg -2.798964 -0.000000 0.000000
LeftFoot 5.874113 6.478471 16.233511
LeftToeBase -0.933490 -0.000000 0.000000
RightUpLeg -9.563702 28.922614 -34.278872
RightLeg 146.573616 -0.000000 -0.000000
RightFoot 47.281623 23.017559 -12.689761
RightToeBase 44.772305 -0.000000 -0.000000
635
root 1.269796 34.253803 -1.935828 112.929186 1.723695 -32.302865
Spine -60.457925 -16.282928 29.381900
Head -24.032599 27.441646 37.419211
LeftShoulder -17.035951 33.742931 42.063198
LeftArm 116.074036 -73.810756 -127.762246
LeftForeArm 6.016733 0.000000 108.501810
LeftHand 37.961237 -0.000000 8.363549
LeftHandThumb1 -26.253704 0.000000 33.147579
RightShoulder -56.752097 -59.510297 20.036611
RightArm 26.756583 -12.334282 49.768392
RightForeArm 18.453679 0.000000 95.390142
RightHand 32.373805 -0.000000 -15.411213
RightHandThumb1 -24.326973 -0.000000 -32.862282
LeftUpLeg -109.991636 33.606351 3.712268
LeftLeg -2.457269 -0.000000 0.000000
LeftFoot 5.874970 6.709999 16.512569
LeftToeBase -0.996462 -0.000000 0.000000
RightUpLeg -9.763026 28.843720 -34.118575
RightLeg 145.809483 -0.000000 -0.000000
RightFoot 46.440427 23.535597 -13.594270
RightToeBase 44.546025 -0.000000 -0.000000
636
root 1.248894 34.256851 -1.971619 112.651618 1.589279 -32.420271
Spine -60.261738 -16.465744 29.264088
Head -23.806495 27.470048 37.421986
LeftShoulder -17.283579 33.883447 41.912685
LeftArm 114.636514 -73.676369 -125.856404
LeftForeArm 6.117052 -0.000000 108.426237
LeftHand 38.006222 -0.000000 8.397779
LeftHandThumb1 -26.253704 0.000000 33.147579
RightShoulder -57.412800 -59.443940 20.632726
RightArm 26.450439 -11.551185 51.440849
RightForeArm 20.861361 -0.000000 94.317105
RightHand 31.803413 -0.000000 -16.181238
RightHandThumb1 -24.326973 -0.000000 -32.862282
LeftUpLeg -109.847272 33.646398 3.760060
LeftLeg -2.106703 -0.000000 0.000000
LeftFoot 5.771057 7.040310 16.847246
LeftToeBase -0.899952 -0.000000 0.000000
RightUpLeg -9.877714 28.728835 -33.970501
RightLeg 144.920963 -0.000000 -0.000000
RightFoot 45.635515 23.840569 -14.204989
RightToeBase 44.405632 -0.000000 -0.000000
637
root 1.229196 34.259132 -2.005012 112.413812 1.444530 -32.575124
Spine -60.080016 -16.569118 29.106577
Head -23.629103 27.498202 37.366621
LeftShoulder -17.319275 33.977078 41.963147
LeftArm 113.275970 -73.587064 -124.327692
LeftForeArm 6.101830 0.000000 108.464751
LeftHand 37.987023 -0.000000 8.342385
LeftHandThumb1 -26.253704 0.000000 33.147579
RightShoulder -58.381539 -59.420348 21.635217
RightArm 26.126069 -10.286355 53.343019
RightForeArm 22.736319 0.000000 93.235649
RightHand 31.761877 0.000000 -15.142800
RightHandThumb1 -24.326973 -0.000000 -32.862282
LeftUpLeg -109.760315 33.720917 3.692234
LeftLeg -1.809431 -0.000000 0.000000
LeftFoot 5.646635 7.272465 17.115213
LeftToeBase -0.603023 -0.000000 0.000000
RightUpLeg -10.085448 28.631535 -33.896952
RightLeg 143.936663 -0.000000 -0.000000
RightFoot 44.948566 24.297884 -14.948327
RightToeBase 43.778671 -0.000000 -0.000000
638
root 1.213532 34.261234 -2.036471 112.234585 1.271999 -32.723725
Spine -59.957748 -16.644022 28.996166
Head -23.495932 27.691481 37.220336
LeftShoulder -17.385880 34.029159 41.923260
LeftArm 111.903658 -73.604915 -122.745139
LeftForeArm 6.257932 -0.000000 108.477317
LeftHand 37.990396 -0.000000 8.420915
LeftHandThumb1 -26.253704 0.000000 33.147579
RightShoulder -59.330687 -59.357040 22.600975
RightArm 25.845105 -8.860805 55.379619
RightForeArm 25.136031 0.000000 92.232300
RightHand 30.684420 0.000000 -14.676580
RightHandThumb1 -24.326973 -0.000000 -32.862282
LeftUpLeg -109.675993 33.780232 3.616517
LeftLeg -1.548473 -0.000000 0.000000
LeftFoot 5.443439 7.469853 17.498561
LeftToeBase 0.147356 -0.000000 -0.000000
RightUpLeg -10.308921 28.470734 -33.872131
RightLeg 142.776308 -0.000000 -0.000000
RightFoot 44.266628 23.751589 -15.066240
RightToeBase 44.518357 -0.000000 -0.000000
639
root 1.197672 34.265105 -2.065961 112.095689 1.085598 -32.879673
Spine -59.883604 -16.691306 28.851703
Head -23.317528 27.734859 37.145329
LeftShoulder -17.389185 34.031371 41.968820
LeftArm 110.193355 -73.568930 -120.860273
LeftForeArm 6.150297 -0.000000 108.496454
LeftHand 37.987405 -0.000000 8.586337
LeftHandThumb1 -26.253704 0.000000 33.147579
RightShoulder -60.144246 -59.315087 23.600185
RightArm 25.455668 -7.317056 57.525587
RightForeArm 28.106777 -0.000000 91.343646
RightHand 29.682051 0.000000 -14.934603
RightHandThumb1 -24.326973 -0.000000 -32.862282
LeftUpLeg -109.593264 33.862506 3.501650
LeftLeg -1.375922 -0.000000 0.000000
LeftFoot 5.398928 7.814370 17.439200
LeftToeBase 0.122959 -0.000000 -0.000000
RightUpLeg -10.619384 28.191071 -33.894995
RightLeg 141.602153 -0.000000 -0.000000
RightFoot 43.273108 23.584540 -15.796758
RightToeBase 44.147711 -0.000000 -0.000000
640
root 1.186816 34.272225 -2.095047 111.958569 0.876030 -33.099731
Spine -59.789780 -16.704024 28.664157
Head -23.087262 27.897654 37.126844
LeftShoulder -17.394673 34.113114 41.955278
LeftArm 108.976759 -73.535268 -119.423390
LeftForeArm 6.245196 -0.000000 108.515990
LeftHand 38.062387 -0.000000 8.468883
LeftHandThumb1 -26.253704 0.000000 33.147579
RightShoulder -60.778896 -59.125528 24.403519
RightArm 25.162443 -5.877383 59.523817
RightForeArm 31.272830 -0.000000 90.351313
RightHand 28.282717 -0.000000 -15.202621
RightHandThumb1 -24.326973 -0.000000 -32.862282
LeftUpLeg -109.425491 34.031400 3.431774
LeftLeg -1.247528 -0.000000 0.000000
LeftFoot 5.308776 8.123387 17.274418
LeftToeBase 0.315611 -0.000000 -0.000000
RightUpLeg -11.016755 27.901914 -34.032078
RightLeg 140.313835 -0.000000 -0.000000
RightFoot 42.218260 23.073222 -16.246899
RightToeBase 44.147437 -0.000000 -0.000000
641
root 1.181774 34.276046 -2.118794 111.850199 0.627529 -33.225360
Spine -59.810724 -16.814751 28.623422
Head -22.759408 28.066457 37.117216
LeftShoulder -17.403545 34.155647 41.862131
LeftArm 107.369904 -73.756999 -117.573517
LeftForeArm 6.403822 -0.000000 108.551045
LeftHand 37.968457 -0.000000 8.702671
LeftHandThumb1 -26.253704 0.000000 33.147579
RightShoulder -61.075936 -58.883117 24.861338
RightArm 24.976576 -4.369836 61.466999
RightForeArm 35.501271 0.000000 89.185485
RightHand 26.942699 0.000000 -14.187079
RightHandThumb1 -24.326973 -0.000000 -32.862282
LeftUpLeg -109.206899 34.105749 3.434260
LeftLeg -1.162405 -0.000000 0.000000
LeftFoot 5.149269 8.489363 17.290664
LeftToeBase 1.018756 -0.000000 -0.000000
RightUpLeg -11.361285 27.343936 -34.168630
RightLeg 138.900036 -0.000000 -0.000000
RightFoot 40.969775 22.953258 -16.977542
RightToeBase 43.411638 -0.000000 -0.000000
642
root 1.174376 34.278980 -2.142157 111.615600 0.343417 -33.332008
Spine -59.724025 -17.040580 28.516005
Head -22.432994 28.300923 37.175942
LeftShoulder -17.388147 34.142157 41.822876
LeftArm 105.751527 -74.016440 -115.728715
LeftForeArm 6.279299 0.000000 108.627646
LeftHand 38.069887 -0.000000 8.593157
LeftHandThumb1 -26.253704 0.000000 33.147579
RightShoulder -60.952943 -58.499808 24.968193
RightArm 24.748047 -2.834525 63.417368
RightForeArm 39.546604 -0.000000 87.717508
RightHand 26.230624 -0.000000 -14.185596
RightHandThumb1 -24.326973 -0.000000 -32.862282
LeftUpLeg -108.834129 34.165091 3.480744
LeftLeg -1.112935 -0.000000 0.000000
LeftFoot 5.215184 8.716504 16.269473
LeftToeBase 0.141359 -0.000000 -0.000000
RightUpLeg -11.540979 26.781843 -34.216752
RightLeg 137.465650 -0.000000 -0.000000
RightFoot 39.444524 23.319747 -18.156911
RightToeBase 42.017228 -0.000000 -0.000000
643
root 1.171515 34.286778 -2.160368 111.508125 0.083854 -33.502314
Spine -59.757190 -17.157659 28.519519
Head -22.008386 28.614699 37.250930
LeftShoulder -17.465384 34.293207 41.639891
LeftArm 104.494642 -74.181417 -114.208183
LeftForeArm 6.498312 -0.000000 108.677592
LeftHand 38.060385 0.000000 8.622081
LeftHandThumb1 -26.253704 0.000000 33.147579
RightShoulder -60.518928 -58.078320 24.744287
RightArm 24.597650 -1.029968 65.513576
RightForeArm 43.131833 -0.000000 86.038446
RightHand 24.636413 -0.000000 -13.229806
RightHandThumb1 -24.326973 -0.000000 -32.862282
LeftUpLeg -108.506884 34.293176 3.573513
LeftLeg -1.057731 -0.000000 0.000000
LeftFoot 4.982322 9.140483 16.700197
LeftToeBase 1.035338 -0.000000 -0.000000
RightUpLeg -11.906186 26.062515 -34.368859
RightLeg 135.967808 -0.000000 -0.000000
RightFoot 38.162542 22.301757 -18.171251
RightToeBase 41.734424 -0.000000 -0.000000
644
root 1.173980 34.292379 -2.173746 111.379087 -0.237559 -33.585312
Spine -59.831302 -17.358412 28.490748
Head -21.535010 28.834067 37.371674
LeftShoulder -17.438002 34.358535 41.506941
LeftArm 102.924652 -74.477705 -112.412428
LeftForeArm 6.414993 0.000000 108.775490
LeftHand 37.880756 0.000000 8.905526
LeftHandThumb1 -26.253704 0.000000 33.147579
RightShoulder -59.988236 -57.764035 24.621711
RightArm 24.547050 1.204458 67.778254
RightForeArm 47.238921 -0.000000 84.174478
RightHand 23.483700 -0.000000 -11.874419
RightHandThumb1 -24.326973 -0.000000 -32.862282
LeftUpLeg -108.204779 34.276608 3.572551
LeftLeg -0.989355 -0.000000 0.000000
LeftFoot 4.637689 9.452886 16.680012
LeftToeBase 1.947432 -0.000000 -0.000000
RightUpLeg -12.144182 25.179428 -34.504606
RightLeg 134.365413 -0.000000 -0.000000
RightFoot 37.203106 20.821576 -17.793455
RightToeBase 41.597713 -0.000000 -0.000000
645
root 1.180174 34.299697 -2.184211 111.266557 -0.539237 -33.635452
Spine -59.914146 -17.536270 28.494772
Head -21.128999 29.024040 37.421217
LeftShoulder -17.441845 34.421627 41.318283
LeftArm 101.723188 -74.618950 -111.005687
LeftForeArm 6.120842 0.000000 108.868424
LeftHand 37.960813 -0.000000 8.671401
LeftHandThumb1 -26.253704 0.000000 33.147579
RightShoulder -59.434321 -57.479970 24.572973
RightArm 24.689476 3.653725 70.151376
RightForeArm 51.471908 -0.000000 82.214740
RightHand 22.848287 -0.000000 -10.677972
RightHandThumb1 -24.326973 -0.000000 -32.862282
LeftUpLeg -107.934957 34.233969 3.581563
LeftLeg -0.912314 -0.000000 0.000000
LeftFoot 4.245936 9.694666 16.287982
LeftToeBase 2.608935 -0.000000 -0.000000
RightUpLeg -12.370377 24.095597 -34.596848
RightLeg 132.700949 -0.000000 -0.000000
RightFoot 36.415919 19.059698 -17.264136
RightToeBase 41.365237 -0.000000 -0.000000
